# 3ds Max Wavefront OBJ Exporter v0.99 - (c)2007 guruware
# File Created: 12.05.2022 10:51:18

mtllib PuertaDer.mtl

#
# object Puerta_derecha
#

v  60.3840 55.6608 -4.2188
v  108.2401 17.3838 -4.2188
v  14.5837 16.2792 -4.2188
v  108.2400 233.6548 -4.2187
v  60.3849 193.9716 -4.2187
v  12.5316 233.6548 -4.2187
v  12.5318 14.5151 -4.2188
v  14.6579 14.5787 -4.2188
v  12.5318 14.5151 4.2187
v  14.6579 14.5787 4.2187
v  108.2401 17.3838 4.2187
v  108.2400 233.6548 4.2188
v  12.5316 233.6548 4.2188
v  60.3840 55.6608 4.2187
v  14.5837 16.2792 4.2187
v  60.3849 193.9716 4.2188
v  12.3388 238.5161 -8.4375
v  24.3502 248.4767 -8.4375
v  12.3393 9.6534 -8.4376
v  0.3277 248.4767 -8.4375
v  0.3278 -0.3068 -8.4376
v  24.3503 -0.3068 -8.4376
v  120.4438 248.4767 -8.4375
v  120.4440 -0.3068 -8.4376
v  108.4331 238.5160 -8.4375
v  96.4217 248.4767 -8.4375
v  96.4218 -0.3068 -8.4376
v  108.4328 9.6537 -8.4376
v  24.3503 -0.3068 8.4375
v  24.3502 248.4767 8.4376
v  0.3277 248.4767 8.4376
v  0.3278 -0.3068 8.4375
v  120.4440 -0.3068 8.4375
v  120.4438 248.4767 8.4376
v  96.4217 248.4767 8.4376
v  96.4218 -0.3068 8.4375
v  12.3388 238.5161 8.4376
v  12.3393 9.6534 8.4375
v  108.4331 238.5160 8.4376
v  108.4328 9.6537 8.4375
v  96.0603 22.8510 -7.7963
v  96.0603 0.2889 -7.7963
v  82.4567 11.5699 -7.7963
v  38.3140 11.5692 -7.7963
v  24.7115 22.8509 -7.7963
v  24.7115 0.2889 -7.7963
v  96.0602 88.8035 -7.7962
v  96.0602 66.2415 -7.7962
v  82.4567 77.5226 -7.7962
v  38.3140 77.5217 -7.7962
v  24.7115 88.8035 -7.7962
v  24.7115 66.2415 -7.7962
v  96.0603 0.2889 7.7962
v  96.0603 22.8510 7.7962
v  24.7115 22.8509 7.7963
v  24.7115 0.2889 7.7962
v  96.0602 66.2415 7.7963
v  96.0602 88.8035 7.7963
v  24.7115 88.8035 7.7963
v  24.7115 66.2415 7.7963
v  82.4567 11.5699 7.7962
v  38.3140 11.5690 7.7962
v  82.4567 77.5226 7.7963
v  38.3140 77.5217 7.7963
v  78.0636 185.7183 -8.3109
v  95.9066 181.3338 -8.3109
v  38.0570 127.8291 -8.3110
v  95.7303 248.2375 -8.3109
v  24.8634 130.3676 -8.3110
v  25.1706 91.4756 -8.3110
v  25.9029 93.5417 -8.3110
v  26.5298 93.2023 -8.3110
v  25.1706 91.4756 8.3109
v  26.5298 93.2023 8.3109
v  95.9066 181.3336 8.3109
v  95.7303 248.2375 8.3110
v  24.8634 130.3676 8.3109
v  78.0636 185.7183 8.3109
v  38.0570 127.8291 8.3109
v  25.9029 93.5417 8.3109
v  73.7480 231.3140 -7.2221
v  90.1340 239.7120 -7.2221
v  80.1031 222.7881 -7.2222
v  90.2889 239.8404 -7.2221
v  90.2889 239.6815 -7.2221
v  34.6510 231.3141 -7.2221
v  24.3697 239.8404 -7.2221
v  24.3697 222.7881 -7.2221
v  80.1031 222.7881 7.2221
v  90.2889 239.6815 7.2221
v  90.2889 239.8404 7.2221
v  24.3697 239.8404 7.2222
v  24.3697 222.7881 -7.2222
v  24.3697 222.7881 7.2221
v  90.1340 239.7120 7.2221
v  73.7480 231.3139 7.2221
v  34.6510 231.3141 7.2221
# 97 vertices

vn -0.0000 -0.0000 -1.0000
vn 0.0435 -0.9991 0.0000
vn 1.0000 0.0000 -0.0000
vn -0.0000 1.0000 0.0000
vn -1.0000 -0.0000 0.0000
vn -0.0000 -0.0000 1.0000
vn -0.0000 -1.0000 0.0000
vn 0.8794 -0.4761 0.0000
vn 1.0000 0.0018 -0.0000
vn -0.9241 0.3821 0.0000
vn -0.9820 0.1889 0.0000
vn -1.0000 -0.0054 0.0000
vn -0.0000 0.0000 -1.0000
vn 0.9237 -0.3830 0.0000
vn 0.9814 -0.1921 0.0000
vn 0.0000 -1.0000 -0.0000
# 16 vertex normals

vt 1.2284 0.3755 0.0000
vt 0.9567 0.0262 0.0000
vt 1.4884 0.0161 0.0000
vt 0.9567 2.0000 0.0000
vt 1.2284 1.6378 0.0000
vt 1.5000 2.0000 0.0000
vt 1.5000 0.0000 0.0000
vt 1.4879 0.0006 0.0000
vt 0.0000 2.0000 0.0000
vt 0.0000 1.9273 0.0000
vt 0.0121 1.9273 0.0000
vt 0.0121 2.0000 0.0000
vt 0.5433 1.9273 0.0000
vt 0.5433 2.0000 0.0000
vt 0.0000 0.0262 0.0000
vt 0.0545 0.0262 0.0000
vt 0.0545 2.0000 0.0000
vt 0.5433 0.0000 0.0000
vt 0.5433 0.0727 0.0000
vt 0.0000 0.0727 0.0000
vt 0.0000 0.0000 0.0000
vt 1.4455 2.0000 0.0000
vt 1.4455 0.0000 0.0000
vt 0.5433 0.0262 0.0000
vt 0.2716 0.3755 0.0000
vt 0.0116 0.0161 0.0000
vt 0.2716 1.6378 0.0000
vt 0.0121 0.0006 0.0000
vt 0.9000 0.9600 0.0000
vt 0.8000 1.0000 0.0000
vt 0.9000 0.0400 0.0000
vt 1.0000 1.0000 0.0000
vt 1.0000 0.0000 0.0000
vt 0.8000 0.0000 0.0000
vt 0.0000 1.0000 0.0000
vt 0.1000 0.9600 0.0000
vt 0.2000 1.0000 0.0000
vt 0.2000 0.0000 0.0000
vt 0.1000 0.0400 0.0000
vt 0.7685 1.0000 0.0000
vt 0.7685 0.0000 0.0000
vt 0.7500 1.0000 0.0000
vt 0.7500 0.0000 0.0000
vt 0.5185 1.0000 0.0000
vt 0.5185 0.0000 0.0000
vt 0.5000 1.0000 0.0000
vt 0.5000 0.0000 0.0000
vt 0.2685 1.0000 0.0000
vt 0.2685 0.0000 0.0000
vt 0.2500 1.0000 0.0000
vt 0.2500 0.0000 0.0000
vt 0.0185 1.0000 0.0000
vt 0.0185 0.0000 0.0000
vt 0.0000 0.2549 0.0000
vt 0.1907 0.1274 0.0000
vt 0.8094 0.1274 0.0000
vt 1.0000 0.2549 0.0000
vt 0.0000 0.7451 0.0000
vt 0.1907 0.8726 0.0000
vt 0.8094 0.8725 0.0000
vt 1.0000 0.7451 0.0000
vt 0.9310 1.0000 0.0000
vt 0.9310 0.0000 0.0000
vt 0.6810 1.0000 0.0000
vt 0.6810 0.0000 0.0000
vt 0.4310 1.0000 0.0000
vt 0.4310 0.0000 0.0000
vt 0.1810 1.0000 0.0000
vt 0.1810 0.0000 0.0000
vt 0.9899 0.6713 0.0000
vt 0.8922 0.6886 0.0000
vt 1.0148 0.2410 0.0000
vt 1.0850 1.0750 0.0000
vt 1.0850 0.2241 0.0000
vt 0.9719 0.0000 0.0000
vt 0.9744 0.0137 0.0000
vt 0.9704 0.0132 0.0000
vt 0.0150 0.0000 0.0000
vt 0.1159 0.0000 0.0000
vt 0.1159 0.0132 0.0000
vt 0.0150 0.0132 0.0000
vt 0.1159 0.6886 0.0000
vt 0.0150 0.6886 0.0000
vt 0.1159 1.0750 0.0000
vt 0.0150 1.0750 0.0000
vt 0.9841 1.0750 0.0000
vt 0.9841 0.2241 0.0000
vt 0.9841 0.0000 0.0000
vt 1.0850 0.0000 0.0000
vt 0.2078 0.6886 0.0000
vt 0.1101 0.6713 0.0000
vt 0.0852 0.2410 0.0000
vt 0.0150 0.2241 0.0000
vt 0.1281 0.0000 0.0000
vt 0.1256 0.0137 0.0000
vt 0.1296 0.0132 0.0000
vt 0.3325 0.3418 0.0000
vt 0.0031 0.4040 0.0000
vt 0.2047 0.2787 0.0000
vt 0.0000 0.4050 0.0000
vt 0.0000 0.4038 0.0000
vt 1.1183 0.3418 0.0000
vt 1.3250 0.4050 0.0000
vt 1.3250 0.2787 0.0000
vt 0.0000 0.2787 0.0000
vt 0.4133 0.2787 0.0000
vt 0.4133 0.4038 0.0000
vt 0.4133 0.4050 0.0000
vt 1.3250 0.0000 0.0000
vt 1.3250 0.1263 0.0000
vt 0.0000 0.1263 0.0000
vt 0.9117 0.4050 0.0000
vt 0.9117 0.2787 0.0000
vt 1.1203 0.2787 0.0000
vt 1.1203 0.4050 0.0000
vt 1.3219 0.4040 0.0000
vt 0.9925 0.3418 0.0000
vt 1.3250 0.4038 0.0000
vt 0.2067 0.3418 0.0000
# 119 texture coords

o Puerta_derecha
g Puerta_derecha
usemtl Material__35
s 1
f 1/1/1 2/2/1 3/3/1 
f 4/4/1 2/2/1 5/5/1 
f 6/6/1 4/4/1 5/5/1 
f 7/7/1 6/6/1 3/3/1 
f 8/8/1 7/7/1 3/3/1 
f 8/8/1 3/3/1 2/2/1 
f 1/1/1 5/5/1 2/2/1 
f 3/3/1 6/6/1 1/1/1 
f 5/5/1 1/1/1 6/6/1 
f 9/9/2 7/10/2 8/11/2 
f 9/9/2 8/11/2 10/12/2 
f 10/12/2 8/11/2 2/13/2 
f 10/12/2 2/13/2 11/14/2 
f 11/15/3 2/16/3 4/17/3 
f 11/15/3 4/17/3 12/9/3 
f 12/18/4 4/19/4 6/20/4 
f 12/18/4 6/20/4 13/21/4 
f 13/6/5 6/22/5 7/23/5 
f 13/6/5 7/23/5 9/7/5 
f 11/24/6 14/25/6 15/26/6 
f 11/24/6 12/14/6 16/27/6 
f 12/14/6 13/9/6 16/27/6 
f 13/9/6 9/21/6 15/26/6 
f 9/21/6 10/28/6 15/26/6 
f 15/26/6 10/28/6 11/24/6 
f 16/27/6 14/25/6 11/24/6 
f 13/9/6 15/26/6 14/25/6 
f 14/25/6 16/27/6 13/9/6 
f 17/29/1 18/30/1 19/31/1 
f 20/32/1 18/30/1 17/29/1 
f 19/31/1 21/33/1 17/29/1 
f 22/34/1 21/33/1 19/31/1 
f 23/35/1 24/21/1 25/36/1 
f 26/37/1 23/35/1 25/36/1 
f 27/38/1 26/37/1 28/39/1 
f 24/21/1 27/38/1 28/39/1 
f 22/34/1 19/31/1 18/30/1 
f 20/32/1 17/29/1 21/33/1 
f 28/39/1 25/36/1 24/21/1 
f 25/36/1 28/39/1 26/37/1 
f 29/33/3 22/32/3 18/40/3 
f 29/33/3 18/40/3 30/41/3 
f 30/41/4 18/40/4 20/42/4 
f 30/41/4 20/42/4 31/43/4 
f 31/43/5 20/42/5 21/44/5 
f 31/43/5 21/44/5 32/45/5 
f 32/45/7 21/44/7 22/46/7 
f 32/45/7 22/46/7 29/47/7 
f 33/47/3 24/46/3 23/48/3 
f 33/47/3 23/48/3 34/49/3 
f 34/49/4 23/48/4 26/50/4 
f 34/49/4 26/50/4 35/51/4 
f 35/51/5 26/50/5 27/52/5 
f 35/51/5 27/52/5 36/53/5 
f 36/53/7 27/52/7 24/35/7 
f 36/53/7 24/35/7 33/21/7 
f 30/30/6 37/29/6 38/31/6 
f 30/30/6 31/32/6 37/29/6 
f 32/33/6 38/31/6 37/29/6 
f 32/33/6 29/34/6 38/31/6 
f 33/21/6 34/35/6 39/36/6 
f 34/35/6 35/37/6 39/36/6 
f 35/37/6 36/38/6 40/39/6 
f 36/38/6 33/21/6 40/39/6 
f 38/31/6 29/34/6 30/30/6 
f 37/29/6 31/32/6 32/33/6 
f 39/36/6 40/39/6 33/21/6 
f 40/39/6 39/36/6 35/37/6 
f 41/54/1 42/21/1 43/55/1 
f 44/56/1 45/57/1 43/55/1 
f 46/33/1 45/57/1 44/56/1 
f 43/55/1 42/21/1 44/56/1 
f 47/35/1 48/58/1 49/59/1 
f 50/60/1 51/32/1 49/59/1 
f 52/61/1 51/32/1 50/60/1 
f 49/59/1 48/58/1 50/60/1 
f 41/54/1 43/55/1 45/57/1 
f 46/33/1 44/56/1 42/21/1 
f 47/35/1 49/59/1 51/32/1 
f 52/61/1 50/60/1 48/58/1 
f 53/33/3 42/32/3 41/62/3 
f 53/33/3 41/62/3 54/63/3 
f 54/63/4 41/62/4 45/42/4 
f 54/63/4 45/42/4 55/43/4 
f 55/43/5 45/42/5 46/64/5 
f 55/43/5 46/64/5 56/65/5 
f 56/65/7 46/64/7 42/46/7 
f 56/65/7 42/46/7 53/47/7 
f 57/47/3 48/46/3 47/66/3 
f 57/47/3 47/66/3 58/67/3 
f 58/67/4 47/66/4 51/50/4 
f 58/67/4 51/50/4 59/51/4 
f 59/51/5 51/50/5 52/68/5 
f 59/51/5 52/68/5 60/69/5 
f 60/69/7 52/68/7 48/35/7 
f 60/69/7 48/35/7 57/21/7 
f 53/21/6 54/54/6 61/55/6 
f 55/57/6 62/56/6 61/55/6 
f 55/57/6 56/33/6 62/56/6 
f 53/21/6 61/55/6 62/56/6 
f 57/58/6 58/35/6 63/59/6 
f 59/32/6 64/60/6 63/59/6 
f 59/32/6 60/61/6 64/60/6 
f 57/58/6 63/59/6 64/60/6 
f 61/55/6 54/54/6 55/57/6 
f 62/56/6 56/33/6 53/21/6 
f 63/59/6 58/35/6 59/32/6 
f 64/60/6 60/61/6 57/58/6 
f 65/70/1 66/71/1 67/72/1 
f 68/73/1 66/71/1 65/70/1 
f 67/72/1 69/74/1 65/70/1 
f 70/75/1 69/74/1 71/76/1 
f 72/77/1 70/75/1 71/76/1 
f 67/72/1 66/71/1 71/76/1 
f 72/77/1 71/76/1 66/71/1 
f 68/73/1 65/70/1 69/74/1 
f 67/72/1 71/76/1 69/74/1 
f 73/78/8 70/79/8 72/80/8 
f 73/78/8 72/80/8 74/81/8 
f 74/81/8 72/80/8 66/82/8 
f 74/81/8 66/82/8 75/83/8 
f 75/83/9 66/82/9 68/84/9 
f 75/83/9 68/84/9 76/85/9 
f 76/73/10 68/86/10 69/87/11 
f 76/73/10 69/87/11 77/74/11 
f 77/74/11 69/87/11 70/88/12 
f 77/74/11 70/88/12 73/89/12 
f 75/90/6 78/91/6 79/92/6 
f 75/90/6 76/85/6 78/91/6 
f 77/93/6 79/92/6 78/91/6 
f 77/93/6 73/94/6 80/95/6 
f 73/94/6 74/96/6 80/95/6 
f 75/90/6 79/92/6 80/95/6 
f 80/95/6 74/96/6 75/90/6 
f 78/91/6 76/85/6 77/93/6 
f 80/95/6 79/92/6 77/93/6 
f 81/97/13 82/98/13 83/99/13 
f 84/100/13 85/101/13 82/98/13 
f 86/102/13 87/103/13 81/97/13 
f 88/104/13 87/103/13 86/102/13 
f 81/97/13 83/99/13 86/102/13 
f 85/101/13 83/99/13 82/98/13 
f 81/97/13 87/103/13 82/98/13 
f 84/100/13 82/98/13 87/103/13 
f 88/104/13 86/102/13 83/99/13 
f 89/105/14 83/106/14 85/107/15 
f 89/105/14 85/107/15 90/101/15 
f 90/101/15 85/107/15 84/108/3 
f 90/101/15 84/108/3 91/100/3 
f 91/109/4 84/110/4 87/111/4 
f 91/109/4 87/111/4 92/21/4 
f 92/103/5 87/112/5 88/113/5 
f 92/103/5 93/113/5 94/104/5 
f 94/100/16 88/105/16 83/114/16 
f 94/100/16 83/114/16 89/115/16 
f 95/116/6 96/117/6 89/114/6 
f 90/118/6 91/103/6 95/116/6 
f 92/100/6 97/119/6 96/117/6 
f 92/100/6 94/105/6 97/119/6 
f 89/114/6 96/117/6 97/119/6 
f 89/114/6 90/118/6 95/116/6 
f 92/100/6 96/117/6 95/116/6 
f 95/116/6 91/103/6 92/100/6 
f 97/119/6 94/105/6 89/114/6 
# 0 polygons - 164 triangles

